<?xml version="1.0" encoding="UTF-8"?>
<svg width="2050px" height="1246px" viewBox="0 0 2050 1246" version="1.1" xmlns="http://www.w3.org/2000/svg" xmlns:xlink="http://www.w3.org/1999/xlink">
    <!-- Generator: Sketch 53.2 (72643) - https://sketchapp.com -->
    <title>furniture</title>
    <desc>Created with Sketch.</desc>
    <defs>
        <path d="M1966.96003,1117.31075 C1966.96003,1117.31075 1879.24545,878.065302 1899.20446,701.060434 C1919.11094,524.055567 2032.50961,531.303836 2048.897,343.111421 C2065.2844,154.919005 1761.11965,-125.767646 1473.5524,62.1096278 C1185.98514,249.986902 896.106841,91.8380419 677.765821,86.9008141 C459.477325,81.9635863 343.504996,131.913625 223.383295,262.119876 C103.261594,392.326128 108.04125,579.363022 187.562132,752.008423 C267.083013,924.653824 6.82121026e-13,1145.72608 6.82121026e-13,1145.72608 L1966.96003,1117.31075 Z" id="path-1"></path>
    </defs>
    <g id="Page-1" stroke="none" stroke-width="1" fill="none" fill-rule="evenodd">
        <g id="furniture">
            <g id="Clipped" transform="translate(0.000000, 0.000000)">
                <mask id="mask-2" fill="white">
                    <use xlink:href="#path-1"></use>
                </mask>
                <use id="Mask" fill="#F3F5F7" fill-rule="nonzero" xlink:href="#path-1"></use>
                <g mask="url(#mask-2)" id="Group">
                    <g transform="translate(34.665642, 152.318729)">
                        <g transform="translate(0.105047, 0.341757)">
                            <g id="Group_1_">
                                <polygon id="Rectangle_1_" fill="#F2F4F6" fill-rule="nonzero" points="53.7317448 0.367665898 2260.14732 0.367665898 2310.04484 1072.21881 0.210094799 1060.19088"></polygon>
                                <g id="Group" transform="translate(1498.501153, 277.526289)" fill-rule="nonzero">
                                    <g id="Rectangle" transform="translate(0.488518, 0.000000)">
                                        <g id="Group" opacity="0.61" transform="translate(0.000000, 1.291540)" fill="#E6E7EC" stroke="#D0D3D9" stroke-width="2">
                                            <rect id="Rectangle" x="0.105047399" y="0.210094799" width="391.669229" height="582.697925"></rect>
                                        </g>
                                        <rect fill="#D6D8E0" x="189.190366" y="0.0525236997" width="3.30899308" height="578.128363"></rect>
                                        <rect fill="#D6D8E0" x="2.99385088" y="1.41813989" width="388.622854" height="1"></rect>
                                    </g>
                                    <rect id="Rectangle" fill="#D6D8E0" x="155.785293" y="251.010761" width="9.34921855" height="20.116577"></rect>
                                </g>
                                <path d="M1345.44709,638.373046 C1346.70766,626.240072 1437.10095,638.373046 1458.16295,548.504996 C1469.45555,500.28824 1611.11197,415.514988 1594.46195,310.204971 C1577.81194,204.894953 1620.51371,131.046631 1620.51371,131.046631 L1590.04996,131.046631 L1368.87266,119.071227 C1258.88803,119.071227 1130.57264,256.315655 1130.57264,376.910069 L1108.40764,552.759416 L1029.14937,555.22803 C1095.17166,604.127594 1192.44555,684.646426 1334.52216,637.637715 L1345.44709,638.373046 Z" id="Path" stroke="#D2D5D9" stroke-width="2" fill="#DEE1E8" fill-rule="nonzero" stroke-dasharray="7"></path>
                                <path d="M1620.67128,131.046631 C1620.67128,131.046631 1374.65027,296.443761 1296.23239,391.354087" id="Path" stroke="#FFFFFF" stroke-width="2"></path>
                                <path d="M1595.4599,317.822498 C1595.4599,317.822498 1432.58391,318.503715 1410.10377,279.898796 C1387.51858,241.451448 1422.76198,123.063028 1422.76198,123.063028" id="Path" stroke="#FFFFFF" stroke-width="2"></path>
                                <path d="M1574.24033,399.810402 C1574.24033,399.810402 1216.76403,413.308993 1350.85703,119.071227" id="Path" stroke="#FFFFFF" stroke-width="2"></path>
                                <path d="M1476.49372,511.160646 C1476.49372,511.160646 1384.31463,488.838073 1334.1545,434.686139" id="Path" stroke="#FFFFFF" stroke-width="2"></path>
                                <path d="M1540.46759,439.623367 C1540.46759,439.623367 1369.29285,455.590571 1335.25749,376.384832" id="Path" stroke="#FFFFFF" stroke-width="2"></path>
                                <path d="M1246.38739,176.427107 C1244.75916,169.809121 1242.13297,332.580067 1324.96285,358.736869" id="Path" stroke="#FFFFFF" stroke-width="2"></path>
                                <rect id="Rectangle" fill="#CDD0D5" fill-rule="nonzero" x="53.9943633" y="855.821163" width="2205.73277" height="19.0135793"></rect>
                                <path d="M1271.28363,300.855752 C1271.28363,300.855752 1260.41122,324.701512 1279.52985,334.628491 C1301.32718,345.921086 1318.81758,352.959262 1404.6413,314.091724" id="Path" stroke="#FFFFFF"></path>
                                <g id="Group" transform="translate(422.541191, 253.994394)" fill-rule="nonzero" stroke="#B9BAD2">
                                    <path d="M267.18806,36.9241609 L256.000512,36.9241609 C251.746093,36.9241609 248.279529,33.4575967 248.279529,29.203177 L248.279529,18.015629 C248.279529,13.7612093 251.746093,10.2946451 256.000512,10.2946451 L267.18806,10.2946451 C271.44248,10.2946451 274.909044,13.7612093 274.909044,18.015629 L274.909044,29.203177 C274.909044,33.5101204 271.44248,36.9241609 267.18806,36.9241609 Z" id="Path" fill="#E7E8EE"></path>
                                    <path d="M310.572636,36.9241609 L299.385088,36.9241609 C295.130669,36.9241609 291.664105,33.4575967 291.664105,29.203177 L291.664105,18.015629 C291.664105,13.7612093 295.130669,10.2946451 299.385088,10.2946451 L310.572636,10.2946451 C314.827056,10.2946451 318.29362,13.7612093 318.29362,18.015629 L318.29362,29.203177 C318.29362,33.5101204 314.87958,36.9241609 310.572636,36.9241609 Z" id="Path" fill="#E7E8EE"></path>
                                    <path d="M352.22393,36.9241609 L341.036382,36.9241609 C336.781963,36.9241609 333.315398,33.4575967 333.315398,29.203177 L333.315398,18.015629 C333.315398,13.7612093 336.781963,10.2946451 341.036382,10.2946451 L352.22393,10.2946451 C356.47835,10.2946451 359.944914,13.7612093 359.944914,18.015629 L359.944914,29.203177 C359.944914,33.5101204 356.47835,36.9241609 352.22393,36.9241609 Z" id="Path" fill="#E7E8EE"></path>
                                    <rect id="Rectangle" fill="#E7E8EE" x="301.486036" y="126.266974" width="12.8157827" height="93.4396618"></rect>
                                    <rect id="Rectangle" fill="#CDD0D5" x="333.315398" y="121.434794" width="39.2877274" height="8.14117346"></rect>
                                    <rect id="Rectangle" fill="#F0F2F5" x="424.969254" y="125.689213" width="198.434538" height="110.089675"></rect>
                                    <rect id="Rectangle" fill="#CDD0D5" x="634.17115" y="121.434794" width="11.4501665" height="11.4501665"></rect>
                                    <rect id="Rectangle" fill="#E7E8EE" x="0.367665898" y="420.872406" width="45.3279529" height="6.77555726"></rect>
                                    <rect id="Rectangle" fill="#E7E8EE" x="0.367665898" y="438.100179" width="58.8265437" height="6.77555726"></rect>
                                    <rect id="Rectangle" fill="#E7E8EE" x="0.367665898" y="458.531899" width="45.3279529" height="6.77555726"></rect>
                                    <rect id="Rectangle" fill="#E7E8EE" x="0.367665898" y="478.911094" width="62.975916" height="6.77555726"></rect>
                                    <rect id="Rectangle" fill="#CDD0D5" x="313.356393" y="55.4125032" width="28.5203689" height="5.93517807"></rect>
                                    <path d="M630.599539,7.14322316 L463.311555,7.14322316 C461.368178,7.14322316 459.739944,5.51498847 459.739944,3.57161158 L459.739944,3.57161158 C459.739944,1.62823469 461.368178,1.13686838e-13 463.311555,1.13686838e-13 L630.599539,1.13686838e-13 C632.542916,1.13686838e-13 634.17115,1.62823469 634.17115,3.57161158 L634.17115,3.57161158 C634.17115,5.67255957 632.647963,7.14322316 630.599539,7.14322316 Z" id="Path" fill="#CDD0D5"></path>
                                    <path d="M622.615936,508.534461 L581.542403,508.534461 C576.867794,508.534461 573.138611,504.805278 573.138611,500.130669 L573.138611,500.130669 C573.138611,495.456059 576.867794,491.726877 581.542403,491.726877 L622.615936,491.726877 C627.290546,491.726877 631.019728,495.456059 631.019728,500.130669 L631.019728,500.130669 C631.019728,504.700231 627.132975,508.534461 622.615936,508.534461 Z" id="Path" fill="#CDD0D5"></path>
                                </g>
                                <g id="Group" transform="translate(575.356420, 114.619804)">
                                    <g>
                                        <g stroke="#B9BAD2">
                                            <g>
                                                <g id="Rectangle" fill-rule="nonzero" stroke-width="2">
                                                    <rect fill="#FFFFFF" x="0.262618499" y="0.0525236997" width="855.558545" height="522.190623"></rect>
                                                    <rect fill="#434366" x="0.525236997" y="0.0525236997" width="857.606969" height="26.9971817"></rect>
                                                </g>
                                                <path d="M36.5039713,51.1580835 L199.012298,54.046887" id="Path" stroke-width="0.75"></path>
                                            </g>
                                            <ellipse id="Oval_1_" stroke-width="2" fill="#4F5AAB" fill-rule="nonzero" cx="23.9508071" cy="16.8601076" rx="5.93517807" ry="4.56956188"></ellipse>
                                            <ellipse id="Oval" stroke-width="2" fill="#E4C531" fill-rule="nonzero" cx="42.5441968" cy="16.8601076" rx="5.93517807" ry="4.56956188"></ellipse>
                                            <ellipse id="Oval" stroke-width="2" fill="#FFFFFF" fill-rule="nonzero" cx="61.0325391" cy="16.8601076" rx="5.93517807" ry="4.56956188"></ellipse>
                                        </g>
                                        <path d="M804.978222,495.351012 L704.500384,495.351012 C701.874199,495.351012 699.825775,493.302588 699.825775,490.676403 L699.825775,476.495004 C699.825775,473.868819 701.874199,471.820395 704.500384,471.820395 L804.978222,471.820395 C807.604407,471.820395 809.652831,473.868819 809.652831,476.495004 L809.652831,490.676403 C809.652831,493.302588 807.604407,495.351012 804.978222,495.351012 Z" id="Path" fill="#CDD0D5" fill-rule="nonzero"></path>
                                    </g>
                                    <g id="SVGID_10_-link" transform="translate(487.668982, 137.557814)" stroke="#B9BAD2" stroke-width="3">
                                        <rect id="SVGID_10_" x="0.315142198" y="0.157571099" width="366.457853" height="380.639252"></rect>
                                    </g>
                                </g>
                                <g id="Group" transform="translate(383.226643, 67.556015)">
                                    <path d="M261.305406,438.782987 C260.202408,428.330771 174.326159,438.782987 154.367153,361.205483 C143.599795,319.606713 33.2475019,232.364848 49.0571355,141.236229 C64.9192929,50.2651806 0.420189598,0.105047399 0.420189598,0.105047399 L29.203177,0.105047399 L224.906482,0.105047399 C329.113502,0.105047399 413.571612,84.5631565 413.571612,188.770177 L413.571612,428.856008 L261.305406,438.782987 Z" id="Path" stroke="#BBBDC7" fill="#F8F9FF" fill-rule="nonzero" stroke-dasharray="7"></path>
                                    <path d="M0.420189598,0.262618499 C0.420189598,0.262618499 183.727902,85.7186779 265.139636,172.382782" id="Path" stroke="#FFFFFF"></path>
                                    <path d="M45.9057136,145.80579 C45.9057136,145.80579 150.795542,133.935434 174.063541,98.7970792 C197.489111,63.6587241 166.920318,0.262618499 166.920318,0.262618499" id="Path" stroke="#FFFFFF"></path>
                                    <path d="M55.8326928,170.754548 C55.8326928,170.754548 277.587753,177.530105 200.693057,4.56956188" id="Path" stroke="#FFFFFF"></path>
                                    <path d="M102.421214,284.310787 C102.421214,284.310787 227.00743,269.131437 279.11094,219.549065" id="Path" stroke="#FFFFFF"></path>
                                    <path d="M136.299001,323.861132 C136.299001,323.861132 255.632847,356.635921 291.086344,284.310787" id="Path" stroke="#FFFFFF"></path>
                                    <path d="M167.025365,377.750448 C167.025365,377.750448 232.207276,436.314374 313.934153,393.455035" id="Path" stroke="#FFFFFF"></path>
                                </g>
                                <path d="M1931.71663,43.8047656 C1931.71663,43.8047656 1985.60594,155.995388 2036.44889,147.696644 C2087.29183,139.397899 2103.57417,147.854215 2125.31899,193.864976 C2147.11632,239.875737 2174.37612,295.971048 2217.07789,316.402767 C2259.77966,336.781963 2283.62542,343.55752 2283.62542,343.55752" id="Path" stroke="#AFB3BD" stroke-width="0.5" stroke-dasharray="7"></path>
                                <g id="Group" transform="translate(67.504927, 55.406916)" stroke="#FFFFFF" stroke-width="3">
                                    <polygon id="Path" points="4.51703818 577.445555 232.207276 577.182936 301.275942 577.445555 301.275942 0.262618499 0.262618499 2.36356649"></polygon>
                                    <polygon id="Path" points="285.518832 555.648219 285.518832 7.72098386 15.2843966 7.72098386 18.3307712 555.80579"></polygon>
                                    <rect id="Rectangle" x="25.0538048" y="7.72098386" width="250.538048" height="84.0904432"></rect>
                                    <rect id="Rectangle" x="25.0538048" y="101.318217" width="250.538048" height="84.0904432"></rect>
                                    <rect id="Rectangle" x="25.0538048" y="196.228542" width="250.538048" height="84.0904432"></rect>
                                    <rect id="Rectangle" x="25.0538048" y="289.825775" width="250.538048" height="84.0904432"></rect>
                                    <rect id="Rectangle" x="24.1083782" y="386.15424" width="250.538048" height="84.0904432"></rect>
                                </g>
                                <rect id="Rectangle" stroke="#434366" stroke-width="2" fill="#434366" fill-rule="nonzero" x="872.996413" y="247.649244" width="558.274404" height="23.8457597"></rect>
                                <path d="M674.141686,149.272355 L779.136562,151.740968" id="Path" stroke="#FFFFFF" stroke-width="0.75"></path>
                                <path d="M713.009224,179.315911 L707.756854,179.315911 C703.502434,179.315911 700.03587,175.849347 700.03587,171.594927 L700.03587,166.342557 C700.03587,162.088137 703.502434,158.621573 707.756854,158.621573 L713.009224,158.621573 C717.263643,158.621573 720.730208,162.088137 720.730208,166.342557 L720.730208,171.594927 C720.730208,175.849347 717.316167,179.315911 713.009224,179.315911 Z" id="Path" fill="#E7E8EE" fill-rule="nonzero"></path>
                                <path d="M745.416346,179.315911 L740.163976,179.315911 C735.909557,179.315911 732.442993,175.849347 732.442993,171.594927 L732.442993,166.342557 C732.442993,162.088137 735.909557,158.621573 740.163976,158.621573 L745.416346,158.621573 C749.670766,158.621573 753.13733,162.088137 753.13733,166.342557 L753.13733,171.594927 C752.979759,175.849347 749.670766,179.315911 745.416346,179.315911 Z" id="Path" fill="#E7E8EE" fill-rule="nonzero"></path>
                                <path d="M779.031514,179.315911 L773.779144,179.315911 C769.524725,179.315911 766.05816,175.849347 766.05816,171.594927 L766.05816,166.342557 C766.05816,162.088137 769.524725,158.621573 773.779144,158.621573 L779.031514,158.621573 C783.285934,158.621573 786.752498,162.088137 786.752498,166.342557 L786.752498,171.594927 C786.594927,175.849347 783.180886,179.315911 779.031514,179.315911 Z" id="Path" fill="#E7E8EE" fill-rule="nonzero"></path>
                                <path d="M812.804253,179.315911 L807.551883,179.315911 C803.297463,179.315911 799.830899,175.849347 799.830899,171.594927 L799.830899,166.342557 C799.830899,162.088137 803.297463,158.621573 807.551883,158.621573 L812.804253,158.621573 C817.058673,158.621573 820.525237,162.088137 820.525237,166.342557 L820.525237,171.594927 C820.367666,175.849347 817.058673,179.315911 812.804253,179.315911 Z" id="Path" fill="#E7E8EE" fill-rule="nonzero"></path>
                                <path d="M845.053805,179.315911 L839.801435,179.315911 C835.547015,179.315911 832.080451,175.849347 832.080451,171.594927 L832.080451,166.342557 C832.080451,162.088137 835.547015,158.621573 839.801435,158.621573 L845.053805,158.621573 C849.308224,158.621573 852.774789,162.088137 852.774789,166.342557 L852.774789,171.594927 C852.774789,175.849347 849.308224,179.315911 845.053805,179.315911 Z" id="Path" fill="#E7E8EE" fill-rule="nonzero"></path>
                                <path d="M948.525493,179.315911 L943.273123,179.315911 C939.018704,179.315911 935.552139,175.849347 935.552139,171.594927 L935.552139,166.342557 C935.552139,162.088137 939.018704,158.621573 943.273123,158.621573 L948.525493,158.621573 C952.779913,158.621573 956.246477,162.088137 956.246477,166.342557 L956.246477,171.594927 C956.14143,175.849347 952.674865,179.315911 948.525493,179.315911 Z" id="Path" fill="#E7E8EE" fill-rule="nonzero"></path>
                                <path d="M1135.1422,299.595183 L1399.7566,299.595183" id="Path" stroke="#D6D8E0" stroke-width="16" stroke-linecap="round"></path>
                                <path d="M1135.1422,327.590315 L1320.34076,327.590315" id="Path" stroke="#D6D8E0" stroke-width="16" stroke-linecap="round"></path>
                                <circle id="Oval" fill="#515CAA" fill-rule="nonzero" cx="1163.13733" cy="410" r="27.6799898"></circle>
                                <circle id="Oval" fill="#F0F2F5" fill-rule="nonzero" cx="1350.01665" cy="395.135793" r="39.5503459"></circle>
                                <circle id="Oval" fill="#DBDEE4" fill-rule="nonzero" cx="1215.60851" cy="395.135793" r="39.5503459"></circle>
                                <circle id="Oval" fill="#515CAA" fill-rule="nonzero" cx="1225.1153" cy="513.524212" r="39.5503459"></circle>
                                <circle id="Oval" fill="#EFC630" fill-rule="nonzero" cx="1350.01665" cy="513.524212" r="39.5503459"></circle>
                                <g id="Group" transform="translate(650.593028, 103.762245)" fill-rule="nonzero">
                                    <rect id="Rectangle" stroke="#B9BAD2" stroke-width="2" fill="#FFFFFF" x="0.945426595" y="3.72918268" width="553.179605" height="459.319754"></rect>
                                    <rect id="Rectangle" stroke="#434366" stroke-width="2" fill="#434366" x="0.420189598" y="0.420189598" width="554.545222" height="23.8457597"></rect>
                                    <ellipse id="Oval" stroke="#434366" stroke-width="2" fill="#4F5AAB" cx="15.4419677" cy="15.3369203" rx="3.83423008" ry="3.99180118"></ellipse>
                                    <ellipse id="Oval" stroke="#434366" stroke-width="2" fill="#E4C531" cx="27.4173713" cy="15.3369203" rx="3.83423008" ry="3.99180118"></ellipse>
                                    <ellipse id="Oval" stroke="#434366" stroke-width="2" fill="#FFFFFF" cx="39.3927748" cy="15.3369203" rx="3.83423008" ry="3.99180118"></ellipse>
                                    <path d="M510.320266,438.940559 L457.008711,438.940559 C453.699718,438.940559 450.968486,436.209326 450.968486,432.900333 L450.968486,423.813733 C450.968486,420.50474 453.594671,417.773508 457.008711,417.773508 L510.320266,417.773508 C513.62926,417.773508 516.360492,420.50474 516.360492,423.813733 L516.360492,432.900333 C516.255445,436.314374 513.62926,438.940559 510.320266,438.940559 Z" id="Path" fill="#CDD0D5"></path>
                                </g>
                                <path d="M1180.20753,602.919549 L1125.21522,602.919549 C1122.58903,602.919549 1120.54061,600.871125 1120.54061,598.24494 L1120.54061,593.675378 C1120.54061,591.049193 1122.58903,589.000769 1125.21522,589.000769 L1180.20753,589.000769 C1182.83372,589.000769 1184.88214,591.049193 1184.88214,593.675378 L1184.88214,598.24494 C1184.77709,600.871125 1182.67615,602.919549 1180.20753,602.919549 Z" id="Path" fill="#CDD0D5" fill-rule="nonzero"></path>
                                <g id="Group" transform="translate(1863.307782, 607.980183)" fill="#F1F1F3" fill-rule="nonzero" stroke="#C6C7D4" stroke-width="2">
                                    <polygon id="Path" points="0.210094799 0.210094799 177.162439 0.210094799 177.162439 18.1206764 177.162439 160.092237 1.57571099 160.092237"></polygon>
                                    <polygon id="Path" points="10.5047399 9.97950295 165.81732 9.97950295 165.81732 150.007686 11.6077376 150.007686"></polygon>
                                    <path d="M165.81732,56.4104535 L10.9249295,56.4104535" id="Path"></path>
                                    <path d="M165.81732,102.158596 L10.5047399,102.158596" id="Path"></path>
                                    <path d="M70.7494235,32.4596464 C70.7494235,32.4596464 88.3973866,44.0148604 106.570587,32.4596464" id="Path"></path>
                                    <path d="M70.486805,79.9935947 C70.486805,79.9935947 88.1347681,91.5488086 106.307968,79.9935947" id="Path"></path>
                                    <path d="M70.2241865,125.899308 C70.2241865,125.899308 87.8721496,137.454522 106.04535,125.899308" id="Path"></path>
                                    <polygon id="Path" points="140.921086 160.092237 165.81732 250.905714 154.944914 250.905714 115.657187 160.092237"></polygon>
                                    <polygon id="Path" points="35.4534973 160.092237 10.5047399 250.905714 21.4296695 250.905714 60.6648732 160.092237"></polygon>
                                </g>
                                <path d="M371.500128,975.049962 L370.134512,968.274404 C370.554702,970.795542 371.079939,973.106585 371.500128,975.049962 Z" id="Path" fill="#E4C532" fill-rule="nonzero"></path>
                                <path d="M340.353574,624.191647 C342.822188,625.032027 344.607994,625.452216 344.607994,625.557264 C343.399949,624.716884 341.876761,624.296695 340.353574,624.191647 Z" id="Path" fill="#E4C532" fill-rule="nonzero"></path>
                                <path d="M578.6536,944.166026 C570.249808,960.710992 561.846016,975.049962 561.846016,975.049962 C563.789393,974.367153 571.772995,958.662567 578.6536,944.166026 Z" id="Path" fill="#FFFFFF" fill-rule="nonzero"></path>
                                <g id="Group" transform="translate(698.423121, 185.740725)" fill-rule="nonzero">
                                    <path d="M100.320266,87.8196259 L42.1765309,87.8196259 C19.1711504,87.8196259 0.420189598,69.2262362 0.420189598,46.0632847 L0.420189598,41.9139124 C0.420189598,18.9085319 19.0135793,0.157571099 42.1765309,0.157571099 L100.320266,0.157571099 C123.325647,0.157571099 142.076608,18.7509608 142.076608,41.9139124 L142.076608,46.0632847 C141.919037,69.2262362 123.325647,87.8196259 100.320266,87.8196259 Z" id="Path" stroke="#DBDEE4" stroke-width="2" fill="#F1F2F3"></path>
                                    <path d="M100.320266,204.57981 L42.1765309,204.57981 C19.1711504,204.57981 0.420189598,185.986421 0.420189598,162.823469 L0.420189598,158.674097 C0.420189598,135.668716 19.0135793,116.917756 42.1765309,116.917756 L100.320266,116.917756 C123.325647,116.917756 142.076608,135.511145 142.076608,158.674097 L142.076608,162.823469 C141.919037,185.82885 123.325647,204.57981 100.320266,204.57981 Z" id="Path" stroke="#424D94" fill="#515CAA"></path>
                                    <path d="M100.320266,318.923905 L42.1765309,318.923905 C19.1711504,318.923905 0.420189598,300.330515 0.420189598,277.167563 L0.420189598,273.018191 C0.420189598,250.012811 19.0135793,231.26185 42.1765309,231.26185 L100.320266,231.26185 C123.325647,231.26185 142.076608,249.85524 142.076608,273.018191 L142.076608,277.167563 C141.919037,300.330515 123.325647,318.923905 100.320266,318.923905 Z" id="Path" stroke="#E4B32F" fill="#EFC630"></path>
                                    <path d="M42.0189598,0.472713297 L42.0189598,87.8721496" id="Path" stroke="#DBDEE4" stroke-width="2" fill="#DBDEE4"></path>
                                    <path d="M99.0596977,0.472713297 L99.0596977,87.8721496" id="Path" stroke="#DBDEE4" stroke-width="2" fill="#DBDEE4"></path>
                                    <path d="M0.420189598,41.9139124 L141.97156,41.9139124" id="Path" stroke="#DBDEE4" stroke-width="2" fill="#DBDEE4"></path>
                                    <path d="M71.1170894,117.022803 L71.1170894,204.527287" id="Path" stroke="#36409B" stroke-width="2" fill="#36409B"></path>
                                    <path d="M0.420189598,158.674097 L141.97156,158.674097" id="Path" stroke="#36409B" stroke-width="2" fill="#36409B"></path>
                                    <path d="M16.1247758,241.924161 L129.260825,303.639508" id="Path" stroke="#D8B100" stroke-width="2" fill="#D8B100" stroke-dasharray="8"></path>
                                    <circle id="Oval" fill="#515CAA" cx="42.0189598" cy="41.9139124" r="3.72918268"></circle>
                                    <circle id="Oval" fill="#515CAA" cx="99.0596977" cy="41.9139124" r="3.72918268"></circle>
                                    <circle id="Oval" stroke="#142341" fill="#E4C532" cx="71.1170894" cy="158.674097" r="8.40379195"></circle>
                                    <circle id="Oval" fill="#FFFFFF" cx="73.5857033" cy="273.070715" r="6.04022547"></circle>
                                </g>
                                <path d="M883.343582,213.351268 L987.65565,213.351268" id="Path" stroke="#D6D8E0" stroke-width="12" stroke-linecap="round"></path>
                                <path d="M883.343582,245.60082 L987.65565,245.60082" id="Path" stroke="#D6D8E0" stroke-width="12" stroke-linecap="round"></path>
                                <path d="M883.343582,326.487317 L987.65565,326.487317" id="Path" stroke="#D6D8E0" stroke-width="12" stroke-linecap="round"></path>
                                <path d="M883.343582,358.736869 L987.65565,358.736869" id="Path" stroke="#D6D8E0" stroke-width="12" stroke-linecap="round"></path>
                                <path d="M883.343582,436.576992 L987.65565,436.576992" id="Path" stroke="#D6D8E0" stroke-width="12" stroke-linecap="round"></path>
                                <path d="M883.343582,468.826544 L987.65565,468.826544" id="Path" stroke="#D6D8E0" stroke-width="12" stroke-linecap="round"></path>
                                <path d="M908.554958,158.621573 L1110.87625,158.621573" id="Path" stroke="#D6D8E0" stroke-width="14" stroke-linecap="round"></path>
                                <path d="M728.451191,157.676147 L800.933897,157.676147" id="Path" stroke="#D6D8E0" stroke-width="14" stroke-linecap="round"></path>
                                <polygon id="Path" fill="#434366" fill-rule="nonzero" points="1052.04971 248.647194 1041.96516 267.503203 1050.52652 267.503203 1069.11991 248.647194"></polygon>
                                <rect id="Rectangle" fill="#434366" fill-rule="nonzero" x="1050.10633" y="365.775045" width="26.5769921" height="12.1329746"></rect>
                                <rect id="Rectangle" fill="#434366" fill-rule="nonzero" x="1035.76736" y="475.076864" width="5.93517807" height="5.93517807"></rect>
                                <rect id="Rectangle" fill="#EFC630" fill-rule="nonzero" x="1035.76736" y="310.940302" width="128.578017" height="54.9923136"></rect>
                                <path d="M1038.81373,193.654881 L1167.39175,193.654881 L1167.39175,248.647194 L1038.81373,248.647194 L1038.81373,193.654881 Z" id="Path" stroke="#D2D5D9" fill="#E7E8EE" fill-rule="nonzero" stroke-dasharray="7"></path>
                                <rect id="Rectangle" stroke="#424D94" fill="#515CAA" fill-rule="nonzero" x="1034.55931" y="420.08455" width="128.578017" height="54.9923136"></rect>
                                <rect id="Rectangle" fill="#DEE1E8" fill-rule="nonzero" x="1750.77248" y="257.576223" width="139.870612" height="21.3771458"></rect>
                                <rect id="Rectangle" stroke="#DBDEE4" stroke-width="2" fill="#F1F2F3" fill-rule="nonzero" x="1775.30105" y="227.690238" width="102.78888" height="30.3061747"></rect>
                                <path d="M1345.44709,638.373046 C1345.44709,638.373046 1355.79426,691.684602 1285.35998,710.015373 C1215.08327,728.346144 1297.75557,837.753011 1363.2001,808.970023 C1428.64463,780.187036 1408.68563,534.428645 1501.96772,559.64002" id="Path" stroke="#AFB3BD" opacity="0.24"></path>
                                <polygon id="Path" fill="#434366" fill-rule="nonzero" points="1154.83859 250.275429 1164.92314 269.131437 1156.36177 269.131437 1137.76838 250.275429"></polygon>
                                <rect id="Rectangle" fill="#434366" fill-rule="nonzero" x="1127.00102" y="363.831668" width="26.5769921" height="12.1329746"></rect>
                                <rect id="Rectangle" fill="#434366" fill-rule="nonzero" x="1154.57597" y="474.919293" width="5.93517807" height="5.93517807"></rect>
                            </g>
                            <g transform="translate(203.876567, 504.002416)" id="Path">
                                <polygon fill="#FFFFFF" fill-rule="nonzero" points="0.315142198 0.262618499 211.040225 0.262618499 211.040225 26.4719447 211.040225 234.67589 1.99590059 234.67589"></polygon>
                                <polygon fill="#DEE1E8" fill-rule="nonzero" points="12.6056879 13.3410197 197.384064 13.3410197 197.384064 218.551115 13.9713041 218.551115"></polygon>
                                <path d="M197.384064,82.6723034 L13.1309249,82.6723034" stroke="#C6C7D4" stroke-width="2" fill="#F8F9FF" fill-rule="nonzero"></path>
                                <path d="M197.384064,149.64002 L12.6056879,149.64002" stroke="#C6C7D4" stroke-width="2" fill="#F8F9FF" fill-rule="nonzero"></path>
                                <path d="M84.4055854,47.3763771 C82.1995901,45.5905714 107.568537,62.6607738 127.107353,47.3763771" stroke="#C6C7D4" stroke-width="2"></path>
                                <path d="M83.9853958,117.285421 C81.7794005,115.499616 107.148347,132.569818 126.687164,117.285421" stroke="#C6C7D4" stroke-width="2"></path>
                                <path d="M83.7227774,184.673328 C81.516782,182.887522 106.885729,199.957725 126.424545,184.673328" stroke="#C6C7D4" stroke-width="2"></path>
                                <polygon fill="#DEE1E8" fill-rule="nonzero" points="167.918268 234.67589 197.384064 367.98104 184.568281 367.98104 137.717141 234.67589"></polygon>
                                <polygon fill="#DEE1E8" fill-rule="nonzero" points="42.2290546 234.67589 12.6056879 367.98104 25.5265181 367.98104 72.4301819 234.67589"></polygon>
                            </g>
                        </g>
                    </g>
                </g>
            </g>
            <g id="Group" transform="translate(197.594158, 0.000000)">
                <g transform="translate(52.697714, 518.202972)">
                    <path d="M262.513451,256.053036 C262.513451,256.053036 293.239816,236.356649 304.427364,235.778888 C315.614912,235.253651 335.836536,252.428901 334.733538,260.044837 C333.630541,267.60825 315.457341,251.798616 311.465539,253.426851 C307.473738,255.055086 302.378939,257.156034 283.627978,262.093262 C264.982065,267.18806 262.513451,256.053036 262.513451,256.053036 Z" id="Path" fill="#E9D0B0" fill-rule="nonzero"></path>
                    <path d="M154.839867,263.091212 C154.839867,263.091212 208.886754,320.814758 219.75916,321.812708 C230.631565,322.758135 279.688701,273.175762 291.296439,263.091212 L272.545478,239.823213 L196.176018,274.27876 L154.839867,263.091212 Z" id="Path" fill="#2D2F53" fill-rule="nonzero"></path>
                    <path d="M183.780425,638.215475 C183.780425,638.215475 163.926467,666.473226 172.908019,677.083013 C181.732001,687.6928 191.238791,699.668204 190.818601,706.601332 C190.398411,713.639508 172.48783,703.134768 159.829618,690.318985 C146.751217,677.083013 130.048681,684.383807 131.309249,675.454778 C132.569818,666.473226 162.035614,642.67999 166.710223,627.92083 C167.65565,625.032027 189.715603,632.332821 185.303613,633.278248 C174.851396,635.58929 183.780425,638.215475 183.780425,638.215475 Z" id="Path" fill="#F2CA4C" fill-rule="nonzero"></path>
                    <path d="M300.277991,487.157315 C300.277991,487.157315 179.946195,640.946708 173.643351,655.968486 L154.787343,642.312324 C154.787343,642.312324 162.088137,625.08455 169.388932,591.469383 C176.006918,561.163208 161.405329,483.428132 189.347937,473.238534 C219.549065,462.050986 229.84371,451.336152 239.245452,447.606969 C267.030489,436.471945 300.277991,487.157315 300.277991,487.157315 Z" id="Path" fill="#253191" fill-rule="nonzero"></path>
                    <path d="M246.231104,63.1334871 C246.231104,63.1334871 269.131437,56.5155009 260.727645,39.707917 C252.323853,22.9003331 247.071483,7.19574686 234.518319,2.52113759 C221.965155,-2.15347169 200.74558,0.157571099 194.705355,6.77555726 C188.665129,13.3935434 194.967973,11.187548 188.927748,11.712785 C182.887522,12.238022 185.618755,3.15142198 166.447604,18.7509608 C132.674865,46.1683321 146.751217,53.6266974 141.236229,60.0871125 C124.166026,80.0461184 175.691776,124.323597 175.691776,124.323597 L246.231104,63.1334871 Z" id="Path" fill="#EFC630" fill-rule="nonzero"></path>
                    <path d="M396.869075,655.968486 C396.869075,655.968486 405.850628,685.749424 419.349219,686.432232 C432.847809,687.272611 447.76454,688.375609 452.439149,693.312836 C457.113759,698.250064 437.67999,704.080195 420.032027,704.605432 C401.858827,705.130669 395.923648,721.990776 390.251089,715.057648 C384.578529,708.177043 387.204714,671.095311 379.90392,657.859339 C378.380733,655.233154 398.49731,644.360748 396.186267,648.194978 C390.933897,657.229055 396.869075,655.968486 396.869075,655.968486 Z" id="Path" fill="#F2CA4C" fill-rule="nonzero"></path>
                    <g id="Path" transform="translate(135.499970, 40.080851)" fill="#F5DABD" fill-rule="nonzero">
                        <path d="M68.4383807,84.3530617 C66.2323853,76.6320779 44.43505,48.3743274 44.43505,48.3743274 L39.4978222,79.1006918 C37.7120164,90.5508583 28.8880348,99.4798873 17.4378683,101.685883 C5.30489367,104.049449 0.367665898,109.249295 0.367665898,109.249295 C7.40584166,122.485268 50.370228,145.910838 66.2323853,137.769664 C66.2323853,137.769664 61.1375865,123.850884 60.5598258,114.606713 C60.2972073,108.356393 68.4383807,84.3530617 68.4383807,84.3530617 Z"></path>
                        <path d="M40.1806303,35.0333077 C44.8552396,22.0599539 55.8852165,13.1309249 68.5959518,10.3471688 C72.062516,9.50678965 75.6341276,8.40379195 78.9431207,6.88060466 C87.1893415,3.15142198 91.7589034,-4.30694338 101.265693,3.83423008 C124.428645,23.793236 99.4798873,80.7289265 88.8700999,89.2902895 C75.8967461,99.6374584 52.7863182,79.5208814 44.9077633,60.5073021 C44.9077633,60.5073021 29.728414,60.0871125 26.1568025,47.2713297 C22.5851909,34.455547 35.9262106,40.8109147 39.1301563,37.081732 C39.4978222,36.6615424 39.9180118,35.9787343 40.1806303,35.0333077 Z"></path>
                    </g>
                    <path d="M164.504228,134.093005 C164.504228,134.093005 185.198565,154.89239 197.856777,152.003587 C197.856777,152.003587 212.353318,176.374584 218.656162,215.242121 C222.122726,236.724315 216.187548,261.410453 208.991801,282.630028 C203.214194,299.700231 196.438637,314.722009 193.287215,323.861132 C186.143992,344.55547 199.32744,421.292595 199.32744,421.292595 C199.32744,421.292595 112.505765,423.656162 57.7760697,412.626185 L8.92902895,395.398411 C8.77145785,395.503459 64.2890085,140.133231 164.504228,134.093005 Z" id="Path" fill="#343458" fill-rule="nonzero"></path>
                    <path d="M0.525236997,396.606457 C0.525236997,396.606457 -4.83218037,442.774789 21.2195747,463.469126 C47.4289008,484.163464 178.055342,496.559057 256.735844,480.119139 C277.009992,475.864719 289.142967,577.025365 344.660518,626.765309 C392.877274,669.887266 379.536254,673.458878 379.536254,673.458878 L409.737382,673.616449 C409.737382,673.616449 336.571868,471.032539 324.701512,449.550346 C312.673584,428.015629 181.469383,359.524725 0.525236997,396.606457 Z" id="Path" fill="#515CAA" fill-rule="nonzero"></path>
                    <path d="M48.7419933,389.200615 C48.7419933,389.200615 37.1867794,401.491161 55.3599795,421.607738 C73.5331796,441.724315 114.921855,422.710735 131.151678,421.607738 C147.434025,420.50474 181.732001,425.75711 203.634384,430.851909 C225.536767,435.789137 252.691519,427.122726 265.507302,437.469895 C278.165514,447.817064 286.726877,460.737894 280.791699,480.906995 C274.856521,501.023572 304.900077,520.87753 312.778632,534.376121 C320.762234,548.032283 325.857033,605.335639 325.857033,605.335639 C325.857033,605.335639 281.316936,538.788112 258.731745,469.19421 C236.146554,399.600307 262.565975,480.906995 262.565975,480.906995 L189.400461,488.36536 L67.5980015,500.550858 L6.14527287,492.672303 L8.92902895,391.249039 L10.8724058,395.083269 L48.7419933,389.200615" id="Path" fill="#36409B" fill-rule="nonzero"></path>
                    <path d="M121.38227,155.417627 C121.38227,155.417627 188.612606,302.063797 228.162952,305.635409 C254.897515,308.104023 282.052267,315.142198 305.635409,315.404817 C315.982578,315.562388 329.638739,322.863182 329.638739,333.05278 L323.96618,341.193953 C323.96618,341.193953 202.16372,365.880092 165.344607,333.893159 C128.525493,302.063797 88.8700999,221.702537 89.552908,215.08455 C90.2357161,208.519088 121.38227,155.417627 121.38227,155.417627 Z" id="Path" fill="#343458" fill-rule="nonzero"></path>
                    <path d="M320.657187,329.376121 C319.291571,325.909557 321.760184,322.337945 325.331796,322.232898 C335.101204,321.970279 351.803741,321.707661 356.05816,322.495516 C362.255957,323.756085 369.714322,331.739687 369.714322,331.739687 L322.863182,335.206252 L320.657187,329.376121 Z" id="Path" fill="#E9D0B0" fill-rule="nonzero"></path>
                    <path d="M619.306943,159.724571 C619.306943,159.724571 638.898283,213.876505 593.255188,263.091212 C547.612093,312.305919 460.68537,310.204971 424.864207,341.509096 C389.043044,372.813221 406.113246,445.978734 406.113246,445.978734" id="Path" stroke="#AFB3BD" stroke-dasharray="7"></path>
                    <g transform="translate(224.702454, 191.604541)">
                        <polygon id="Path" fill="#434465" fill-rule="nonzero" points="176.584678 149.902639 13.3935434 149.902639 21.3771458 140.080707 176.584678 140.080707"></polygon>
                        <polyline id="Path" fill="#434465" fill-rule="nonzero" points="267.923392 0.210094799 275.381758 6.14527287 174.221112 148.116833 166.762747 142.286703"></polyline>
                        <rect id="Rectangle" fill="#434465" fill-rule="nonzero" x="254.68742" y="196.070971" width="20.5367666" height="318.766334"></rect>
                        <polyline id="Path" stroke="#2A3448" stroke-width="4" fill="#FFFFFF" fill-rule="nonzero" points="215.872406 184.778376 215.872406 192.07917 308.471688 192.07917 308.471688 184.778376"></polyline>
                        <polyline id="Path" stroke="#2A3448" stroke-width="4" points="88.0822444 533.273123 154.262106 533.273123 189.085319 517.305919 336.834486 517.305919 372.813221 530.804509 435.106328 530.804509"></polyline>
                        <rect id="Rectangle" stroke="#999999" stroke-width="0.75" fill="#FFFFFF" fill-rule="nonzero" x="0.0525236997" y="148.116833" width="509.37484" height="21.6397643"></rect>
                    </g>
                </g>
                <path d="M243.920061,864.224955 C243.920061,864.224955 165.344607,838.435819 164.241609,771.047912 C164.241609,771.047912 148.274404,832.395593 169.599026,853.194978 C190.976172,873.994363 178.843198,896.737125 178.843198,896.737125 L247.491673,906.401486 L243.920061,864.224955 Z" id="Path" fill="#2D2F53" fill-rule="nonzero"></path>
                <path d="M223.698437,745.836536 C223.1732,747.779913 239.823213,797.940046 257.996413,810.335639 C257.996413,810.335639 226.692288,757.39175 228.215475,737.432744 L223.698437,745.836536 Z" id="Path" fill="#2D2F53" fill-rule="nonzero"></path>
                <path d="M218.446067,648.982834 C218.446067,648.982834 245.443249,667.471176 250.958237,667.733795 L250.538048,670.097361 C250.538048,670.097361 231.944658,676.452729 217.185498,652.186779 L218.446067,648.982834 Z" id="Path" fill="#515CAA" fill-rule="nonzero"></path>
                <g transform="translate(63.668622, 0.183480)" fill-rule="nonzero">
                    <circle id="Oval" fill="#EFC630" cx="108.513964" cy="244.760441" r="20.116577"></circle>
                    <g>
                        <rect id="Rectangle" fill="#515CAA" x="102.053549" y="0.262618499" width="10.1895977" height="177.372534"></rect>
                        <path d="M102.053549,177.635152 L0.367665898,236.619267 L218.393543,236.619267 L112.400717,177.635152 L102.053549,177.635152 Z" id="Path" stroke="#D2D5D9" stroke-width="2" fill="#DEE1E8" stroke-dasharray="7"></path>
                    </g>
                </g>
                <g id="Path" transform="translate(1235.948109, 424.075393)" fill-rule="nonzero">
                    <path d="M188.087369,62.5557264 C188.087369,62.5557264 170.702024,31.2516013 193.182168,14.4440174 C241.398924,-21.5347169 241.293877,23.4255701 261.515501,16.9126313 C291.03382,7.40584166 320.762234,44.7501922 313.04125,98.6395081 C303.692032,163.663848 333.578017,173.48578 341.561619,194.547784 C349.702793,215.609787 325.436843,245.548296 304.900077,254.792467 C284.36331,264.141686 217.92083,272.86062 203.58186,263.458878 C189.24289,254.109659 166.395081,207.363566 181.521906,188.875224 C196.701255,170.281834 206.628235,169.704074 210.304894,154.157059 C214.296695,138.610044 188.087369,62.5557264 188.087369,62.5557264 Z" fill="#343458"></path>
                    <path d="M223.383295,158.201384 C223.383295,158.201384 193.07712,230.001281 176.689726,254.004612 C160.302332,278.007943 163.716372,276.904945 152.843966,278.953369 C141.813989,280.896746 61.6102998,262.986164 61.6102998,262.986164 C61.6102998,262.986164 57.0407379,280.476556 58.1437356,281.842173 C59.0891622,283.36536 154.734819,315.719959 176.794773,310.782731 C198.697156,305.845503 226.114527,271.915193 226.114527,271.915193 L223.383295,158.201384 Z" fill="#36409B"></path>
                    <path d="M282.524981,785.6495 C282.524981,785.6495 301.380989,804.400461 295.918524,810.598258 C290.403536,816.796054 253.741993,816.113246 251.693569,814.32744 C249.645145,812.541635 252.796567,792.267487 265.087112,785.6495 C277.272611,779.031514 282.524981,785.6495 282.524981,785.6495 Z" stroke="#434366" fill="#434366"></path>
                    <path d="M245.18063,792.162439 C245.18063,792.162439 256.630797,803.192416 245.18063,810.073021 C233.730464,816.953625 181.521906,815.010249 179.053292,810.073021 C176.584678,805.135793 199.012298,790.796823 222.595439,790.481681 C246.126057,790.219062 245.18063,792.162439 245.18063,792.162439 Z" stroke="#434366" fill="#434366"></path>
                    <path d="M254.68742,637.795286 L254.68742,637.795286 C254.68742,637.795286 264.456828,739.638739 265.034589,753.294901 C265.559826,766.951063 264.19421,781.552652 259.93979,790.376633 C255.68537,799.200615 266.820395,801.931847 273.595952,804.032795 C280.371509,806.08122 290.981296,795.891622 282.577504,785.702024 C274.173713,775.354855 311.097873,661.693569 301.853702,637.690238 C292.557007,613.791955 254.68742,637.795286 254.68742,637.795286 Z" fill="#E9D0B0"></path>
                    <path d="M227.112478,649.245452 C227.112478,649.245452 243.394824,660.012811 235.673841,778.086088 C235.673841,778.086088 250.275429,794.631053 241.451448,798.465283 C232.627466,802.299513 204.369716,802.299513 201.218294,797.624904 C198.066872,792.950295 213.771458,792.372534 216.240072,774.619523 C218.866257,756.866513 181.101717,637.637715 181.101717,637.637715 L227.112478,649.245452 Z" fill="#E9D0B0"></path>
                    <path d="M256.998463,153.526774 C256.998463,153.526774 285.098642,157.255957 298.754804,165.081988 C312.410966,172.960543 324.806559,184.673328 324.806559,184.673328 C324.806559,184.673328 304.952601,218.866257 299.332565,248.594671 C293.712529,278.323085 289.405585,313.251345 329.796311,366.037663 C370.187036,418.823982 295.078145,530.594415 308.734307,572.193185 C322.390469,613.791955 341.929285,669.099411 341.929285,669.099411 C341.929285,669.099411 283.36536,634.906482 232.364848,657.229055 C181.364335,679.551627 140.97361,637.637715 140.97361,637.637715 C140.97361,637.637715 220.494491,388.885473 220.494491,354.167307 C220.494491,319.449142 191.711504,244.865488 197.068921,234.518319 C200.535486,228.057904 210.567512,177.897771 223.383295,158.14886 L230.421471,162.140661 L256.998463,153.526774 Z" fill="#EFC630"></path>
                    <g id="Group" transform="translate(187.970986, 33.623150)" fill="#E9D0B0">
                        <path d="M40.9159621,151.846016 C37.7645401,149.797592 36.3464002,146.068409 37.1867794,142.496797 C37.8695875,139.450423 38.5523956,135.72124 38.5523956,132.044581 C38.3948245,118.283372 38.0271586,98.6920318 35.6635921,94.5426595 C32.0919805,88.0822444 60.1921599,62.7132975 60.1921599,62.7132975 L64.3415322,107.095824 C64.6041507,112.453241 66.810146,117.705611 70.5393287,121.697412 L73.4281322,124.848834 C77.5775045,129.418396 78.2603126,136.14143 75.0563669,141.498847 L72.6928004,145.333077 C66.2323853,155.942864 52.3136049,159.094286 41.808865,152.371253 L40.9159621,151.846016 Z" id="Path"></path>
                        <path d="M65.0243403,50.4227517 C61.4527287,38.132206 51.945939,29.203177 40.3382014,25.7366129 C37.1867794,24.7911863 33.9828337,23.5306175 30.9889828,21.9023828 C23.5306175,17.9105816 22.5851909,-5.51498847 13.2359723,1.52318729 C-9.50678965,18.5933897 1.36561619,95.8032283 16.7025365,97.6940815 C31.9869331,99.6374584 50.895465,90.9185242 59.299257,73.8483218 C59.299257,73.8483218 73.3756085,74.3735588 77.4724571,62.6607738 C81.6218294,50.9479887 68.8060466,56.0427876 66.0222905,52.471176 C65.6021009,52.1035101 65.3394824,51.420702 65.0243403,50.4227517 Z" id="Path"></path>
                    </g>
                    <path d="M324.806559,184.673328 C324.806559,184.673328 373.180886,286.254163 366.720471,307.21112 C360.260056,328.273123 282.787599,346.761466 251.641045,350.490648 C220.494491,354.219831 208.098898,359.734819 208.098898,359.734819 C208.098898,359.734819 196.91135,345.816039 197.909301,337.412247 C198.854727,329.008455 230.316423,324.333846 241.451448,327.642839 C252.638996,330.951832 323.178324,313.566487 325.909557,291.664105 C328.640789,269.761722 298.071996,237.249552 296.28619,223.330771 C294.500384,209.306943 296.811427,180.261337 324.806559,184.673328 Z" fill="#515CAA"></path>
                    <path d="M255.212657,135.878811 C255.212657,135.878811 230.526518,146.908788 223.383295,144.019985 C223.383295,144.019985 220.75711,172.015117 218.288496,182.047143 C217.027927,186.984371 227.795286,214.296695 252.061235,195.125544 C276.432232,175.954394 273.438381,156.415578 273.438381,156.415578 C273.438381,156.415578 248.069434,152.423777 255.212657,135.878811 Z" fill="#515CAA"></path>
                    <path d="M306.37074,244.077633 L295.760953,215.977453 C295.760953,215.977453 284.468358,247.544197 278.270561,263.406354 C278.270561,263.406354 270.129388,302.53651 282.682552,320.604663 L302.273892,313.04125 C302.063797,312.988727 285.676403,277.535229 306.37074,244.077633 Z" fill="#E6B200"></path>
                    <path d="M254.68742,350.017935 L311.202921,337.464771 L329.796311,365.98514 C329.796311,365.98514 308.156546,361.152959 297.389188,359.787343 C286.621829,358.421727 278.795798,360.627722 269.709198,359.787343 C260.622598,358.946964 251.641045,350.543172 251.641045,350.543172" fill="#E6B200"></path>
                    <path d="M382.845247,815.588009 L89.9730976,815.588009" stroke="#434366" stroke-width="2" fill="#434366"></path>
                    <path d="M241.451448,327.695363 C241.451448,327.695363 262.250833,343.242378 251.641045,350.438125 C241.031258,357.738919 212.615936,362.571099 208.098898,359.682296 C203.529336,356.793492 189.768127,346.446323 195.283116,337.517294 C207.678709,316.822957 241.451448,327.695363 241.451448,327.695363 Z" fill="#E9D0B0"></path>
                    <path d="M61.6102998,262.933641 C61.6102998,262.933641 38.1847297,242.659493 31.0415065,242.659493 C23.8982834,242.659493 4.14937228,257.261081 1.41813989,259.624648 C-1.31309249,261.988214 1.41813989,265.139636 7.77350756,264.719447 C14.1288752,264.299257 28.152703,257.156034 31.0415065,259.624648 C33.93031,262.093262 37.3968742,265.297207 32.6697412,264.877018 C27.9951319,264.456828 18.0681527,266.662823 19.1711504,267.503203 C20.2741481,268.343582 32.2495516,270.392006 35.4534973,271.915193 C38.6049193,273.438381 59.299257,271.652575 58.6164489,276.747374 C58.1437356,279.215988 61.6102998,262.933641 61.6102998,262.933641 Z" fill="#E9D0B0"></path>
                </g>
                <path d="M1533.32437,783.758647 C1533.32437,783.758647 1554.54394,871.263131 1526.70638,921.318217 C1498.86882,971.320779 1509.63618,1073.74199 1509.63618,1073.74199 C1509.63618,1073.74199 1571.24648,1081.88317 1577.86446,1093.01819 C1577.86446,1093.01819 1528.38714,1000.15629 1563.52549,899.258263 C1564.2083,897.209839 1565.04868,895.108891 1565.73149,893.060466 C1565.73149,893.060466 1596.72047,819.737382 1561.73969,784.441455 L1533.32437,783.758647 Z" id="Path" fill="#E6B200" fill-rule="nonzero"></path>
                <path d="M9.40174225,767.791442 C14.4965411,787.382782 30.2011273,827.615936 26.0517551,838.750961 C21.9023828,849.938509 37.2393031,892.640277 38.8675378,900.623879 C40.6533436,908.607481 56.2528824,1026.05047 55.5175506,1032.0907 C54.8347425,1038.13092 78.4178837,1070.80067 111.770433,1069.01486 C145.122982,1067.22905 207.573661,1049.31847 225.064053,1050.2639 C242.554445,1051.10428 266.820395,1018.59211 266.295158,1034.13912 C266.295158,1034.13912 261.042788,1045.58929 255.002562,1058.14245 C264.666923,1039.39149 274.27876,1017.75173 271.967717,1011.55393 C267.398155,999.998719 257.366129,990.176787 222.647963,993.90597 C187.772226,997.635152 82.8823982,1004.93595 82.8823982,1004.93595 C82.8823982,1004.93595 57.6710223,811.018447 36.8716372,761.541122 C36.8716372,761.541122 30.253651,744.47092 21.3246221,739.481168 C21.1145273,739.638739 4.25441968,748.200102 9.40174225,767.791442 Z" id="Path" stroke="#FFFFFF" fill="#F2CA4C" fill-rule="nonzero"></path>
                <polygon id="Path" fill="#DBDEE4" fill-rule="nonzero" points="31.5667435 1239.50679 47.9541378 1239.50679 73.9008455 1089.02639 47.9541378 1089.02639"></polygon>
                <polygon id="Path" fill="#DBDEE4" fill-rule="nonzero" points="216.660261 1089.02639 254.950038 1239.50679 267.345632 1239.50679 238.300026 1089.02639"></polygon>
                <path d="M255.10761,1058.14245 C261.147835,1045.74686 266.400205,1034.13912 266.400205,1034.13912 C266.925442,1018.59211 238.405073,1015.12554 220.809634,1014.28517 C203.319242,1013.44479 129.733538,1028.62414 96.380989,1030.40994 C63.0284397,1032.19575 58.77402,1010.71355 59.4568281,1004.6208 C60.1396362,998.580579 50.1076095,903.880348 48.26928,895.896746 C46.4834743,887.913144 32.4071227,849.991033 36.556495,838.698437 C40.7058673,827.405842 23.7407123,789.063541 18.4883423,769.367153 C13.3935434,749.775813 20.9569562,739.481168 21.1145273,739.323597 L21.1145273,739.323597 C20.9569562,739.323597 19.3287215,738.79836 16.8601076,737.957981 C16.0197284,737.957981 15.2318729,737.957981 14.3914937,738.2206 C1.99590059,741.266974 -3.51908788,759.597745 3.78170638,787.540354 C11.0825006,815.640533 44.1724315,933.346144 45.2754292,968.64207 C46.2208558,1001.15424 42.1240072,1054.20318 46.6410453,1082.04074 L48.0066615,1088.8163 L73.9008455,1088.8163 L216.660261,1088.8163 L238.300026,1088.8163 C238.300026,1089.02639 246.703818,1074.68742 255.10761,1058.14245 Z" id="Path" fill="#E6B200" fill-rule="nonzero"></path>
                <g transform="translate(1648.621550, 342.381085)" fill-rule="nonzero">
                    <rect id="Rectangle" fill="#DEE1E8" x="89.9205739" y="111.192672" width="14.0763515" height="678.343582"></rect>
                    <rect id="Rectangle" fill="#DEE1E8" x="42.2290546" y="789.48373" width="104.994876" height="11.2925954"></rect>
                    <polygon id="Path" fill="#515CAA" points="147.118883 0.210094799 193.812452 136.509096 0.0525236997 136.509096 43.5946708 0.210094799"></polygon>
                </g>
                <path d="M1713.06047,342.612093 L1688.63695,479.751473" id="Path" stroke="#BAC1C4" fill="#FFFFFF" fill-rule="nonzero" stroke-dasharray="7"></path>
                <path d="M1738.53446,342.612093 L1738.53446,479.751473" id="Path" stroke="#BAC1C4" fill="#FFFFFF" fill-rule="nonzero" stroke-dasharray="7"></path>
                <path d="M1761.96003,341.666667 L1789.64002,478.911094" id="Path" stroke="#BAC1C4" fill="#FFFFFF" fill-rule="nonzero" stroke-dasharray="7"></path>
                <path d="M1784.17756,341.666667 L1825.09352,478.911094" id="Path" stroke="#BAC1C4" fill="#FFFFFF" fill-rule="nonzero" stroke-dasharray="7"></path>
                <rect id="Rectangle" fill="#CDD0D5" fill-rule="nonzero" x="387.519857" y="879.666923" width="302.641558" height="11.2925954"></rect>
            </g>
            <g id="Group-85" transform="translate(1131.990776, 724.827056)">
                <rect id="Rectangle" stroke="#C9CBDB" fill="#FFFFFF" fill-rule="nonzero" x="192.656931" y="0.262618499" width="152.161158" height="85.1934409"></rect>
                <rect id="Rectangle" fill="#EFC630" fill-rule="nonzero" x="192.656931" y="117.653087" width="152.161158" height="85.1934409"></rect>
                <rect id="Rectangle" fill="#E6B200" fill-rule="nonzero" x="191.816551" y="243.237253" width="152.161158" height="85.1934409"></rect>
                <path d="M203.949526,0.262618499 L203.949526,85.5611068" id="Path" stroke="#C9CBDB"></path>
                <path d="M215.294645,0.105047399 L215.294645,85.4035357" id="Path" stroke="#C9CBDB"></path>
                <path d="M226.429669,0.262618499 L226.429669,85.5611068" id="Path" stroke="#C9CBDB"></path>
                <path d="M237.722265,0.262618499 L237.722265,85.4560594" id="Path" stroke="#C9CBDB"></path>
                <path d="M248.594671,0.105047399 L248.594671,85.4035357" id="Path" stroke="#C9CBDB"></path>
                <path d="M259.782219,0.105047399 L259.782219,85.2984883" id="Path" stroke="#C9CBDB"></path>
                <path d="M271.074814,0.262618499 L271.074814,85.4560594" id="Path" stroke="#C9CBDB"></path>
                <path d="M282.36741,0.105047399 L282.36741,85.4035357" id="Path" stroke="#C9CBDB"></path>
                <path d="M292.714579,0.105047399 L292.714579,85.2984883" id="Path" stroke="#C9CBDB"></path>
                <path d="M304.007174,0 L304.007174,85.2984883" id="Path" stroke="#C9CBDB"></path>
                <path d="M315.194722,0.105047399 L315.194722,85.4035357" id="Path" stroke="#C9CBDB"></path>
                <path d="M326.487317,0.105047399 L326.487317,85.2984883" id="Path" stroke="#C9CBDB"></path>
                <path d="M335.573917,0.262618499 L335.573917,85.5611068" id="Path" stroke="#C9CBDB"></path>
                <path d="M191.816551,316.980528 C191.816551,316.455291 343.977709,316.980528 343.977709,316.980528" id="Path" stroke="#FFFFFF"></path>
                <path d="M192.656931,304.532411 C192.656931,304.007174 344.818089,304.532411 344.818089,304.532411" id="Path" stroke="#FFFFFF"></path>
                <path d="M192.236741,290.351012 C192.236741,289.825775 344.397899,290.351012 344.397899,290.351012" id="Path" stroke="#FFFFFF"></path>
                <path d="M193.07712,278.11299 C193.07712,277.587753 345.238278,278.11299 345.238278,278.11299" id="Path" stroke="#FFFFFF"></path>
                <path d="M191.711504,266.085063 C191.711504,265.559826 343.872662,266.085063 343.872662,266.085063" id="Path" stroke="#FFFFFF"></path>
                <path d="M192.551883,253.847041 C192.551883,253.321804 344.713041,253.847041 344.713041,253.847041" id="Path" stroke="#FFFFFF"></path>
                <rect id="Rectangle" fill="#DEE1E8" fill-rule="nonzero" x="3.69482223e-13" y="360.207533" width="152.161158" height="85.1934409"></rect>
                <g id="Group" transform="translate(191.291314, 358.106585)">
                    <rect id="Rectangle" fill="#515CAA" fill-rule="nonzero" x="0.525236997" y="0.210094799" width="152.161158" height="85.1934409"></rect>
                    <path d="M152.686395,0.210094799 L0.525236997,85.351012" id="Path" stroke="#F5DA68"></path>
                    <path d="M131.88701,0.210094799 L0.525236997,73.638227" id="Path" stroke="#F5DA68"></path>
                    <path d="M106.518063,0.210094799 L0.945426595,59.3517807" id="Path" stroke="#F5DA68"></path>
                    <path d="M82.8298745,0.210094799 L0.420189598,46.3784269" id="Path" stroke="#F5DA68"></path>
                    <path d="M55.9377402,0.210094799 L0.420189598,31.3566487" id="Path" stroke="#F5DA68"></path>
                    <path d="M30.5687932,0.210094799 L0.525236997,17.0176787" id="Path" stroke="#F5DA68"></path>
                </g>
            </g>
        </g>
    </g>
</svg>